<svg width="49" height="49" viewBox="0 0 49 49" fill="none" xmlns="http://www.w3.org/2000/svg">
<g clip-path="url(#clip0_206_54)">
<path d="M33.4026 24.9883L32.2641 31.2761L28.991 29.611L33.4026 24.9883Z" fill="#95D6A4"/>
<path d="M29.3822 12.6414C26.7532 17.8096 27.4958 25.4157 32.0151 27.7145C36.5344 30.0134 43.1191 26.1347 45.7481 20.9664C48.047 16.4471 46.247 10.9198 41.7277 8.62091C37.2084 6.32202 31.6812 8.12201 29.3822 12.6414Z" fill="#B3E59F"/>
<path d="M35.0837 27.7167C31.0188 25.649 30.0189 19.2925 31.77 14.2734L28.5392 14.7392C27.0083 19.6782 28.0761 25.7129 32.0152 27.7167C33.3974 28.4198 34.9733 28.5397 36.5696 28.227C36.0576 28.1161 35.5574 27.9576 35.0837 27.7167Z" fill="#95D6A4"/>
<path d="M15.5974 29.5898L16.7359 35.8776L20.009 34.2126L15.5974 29.5898Z" fill="#C3AFF0"/>
<path d="M19.618 17.2469C22.247 22.415 21.5044 30.0211 16.9851 32.32C12.4658 34.6189 5.88098 30.7401 3.25201 25.5719C0.953127 21.0526 2.75311 15.5253 7.2725 13.2264C11.7919 10.9275 17.319 12.7275 19.618 17.2469V17.2469Z" fill="#EFBDDE"/>
<path d="M5.71153 24.8235C3.45926 21.8072 3.33408 17.8675 5.06803 14.793C2.23215 17.5211 1.37522 21.8804 3.25187 25.5697C5.88083 30.7379 12.4656 34.6167 16.9849 32.3178C18.1572 31.7215 19.0731 30.766 19.7443 29.5907C15.6046 31.9033 9.00707 29.2369 5.71153 24.8235V24.8235Z" fill="#E6A9D1"/>
<path d="M24.4999 23.7344L22.2584 31.2064C22.2285 31.3059 22.303 31.4061 22.4069 31.4061H26.5929C26.6969 31.4061 26.7713 31.3059 26.7415 31.2064L24.4999 23.7344Z" fill="#E5646E"/>
<path d="M36.0075 12.2263C36.0075 19.4942 30.8554 27.5697 24.5 27.5697C18.1445 27.5697 12.9924 19.4943 12.9924 12.2263C12.9924 5.87083 18.1445 0.71875 24.5 0.71875C30.8554 0.71875 36.0075 5.87083 36.0075 12.2263V12.2263Z" fill="#FF8086"/>
<path d="M16.1646 12.7905C15.3624 8.14077 17.4615 3.66818 21.146 1.21875C16.4274 2.65497 12.9927 7.03807 12.9927 12.2263C12.9927 19.4942 18.1448 27.5697 24.5002 27.5697C26.1488 27.5697 27.7151 27.0228 29.1328 26.091C23.1936 26.3222 17.3383 19.5938 16.1646 12.7905V12.7905Z" fill="#E5646E"/>
<path d="M42.1114 8.01073C40.9351 7.40369 39.675 7.04298 38.3659 6.93876C37.9703 6.90747 37.6249 7.20214 37.5934 7.5973C37.5619 7.99246 37.8568 8.33833 38.252 8.36972C39.3701 8.45882 40.4471 8.76717 41.453 9.28646C45.594 11.4238 47.2242 16.5316 45.0869 20.6725C43.8578 23.054 41.6607 25.2301 39.2099 26.4936C36.6498 27.8134 34.1956 28.0011 32.299 27.0223C31.7173 26.722 31.1919 26.3098 30.7299 25.7974C31.6182 25.0392 32.4551 24.1163 33.2219 23.0385C35.4483 19.9087 36.7252 15.9675 36.7252 12.2253C36.7252 5.48427 31.2409 0 24.4999 0C17.9866 0 12.6473 5.12002 12.2937 11.5465C10.4285 11.3777 8.57529 11.74 6.88843 12.6107C2.04404 15.111 0.137057 21.0864 2.6374 25.9308C4.01849 28.6067 6.3858 30.9535 9.13229 32.3695C10.8195 33.2393 12.4868 33.6774 14.0368 33.6774C14.5764 33.6774 15.1015 33.6237 15.6085 33.5173L16.0987 35.9583C16.143 36.1791 16.2884 36.3663 16.4915 36.4639C16.5899 36.5112 16.6962 36.5349 16.8025 36.5349C16.9155 36.5349 17.0286 36.5082 17.1317 36.4549L18.1235 35.943L23.1633 45.7078C23.5649 46.4859 23.7786 47.3585 23.7824 48.234V48.2823C23.7824 48.6782 24.1029 48.9993 24.4988 49.0001H24.5003C24.8955 49.0001 25.2164 48.6805 25.2181 48.2852C25.2181 48.2673 25.2181 44.9779 25.2181 44.9779C25.2402 43.1887 25.6823 41.4078 26.5031 39.8177L30.877 31.3432L31.8688 31.8551C31.9719 31.9084 32.085 31.935 32.198 31.935C32.3042 31.935 32.4106 31.9113 32.509 31.8641C32.712 31.7665 32.8575 31.5793 32.9018 31.3585L33.3919 28.9175C33.8988 29.0239 34.4239 29.0775 34.9636 29.0775C36.5134 29.0775 38.181 28.6394 39.8681 27.7696C42.6146 26.3537 44.9819 24.0068 46.363 21.3309C48.8628 16.4866 46.9558 10.5112 42.1114 8.01073V8.01073ZM24.4999 1.43555C30.4494 1.43555 35.2897 6.27583 35.2897 12.2253C35.2897 15.6254 34.0794 19.3566 32.0521 22.2064C29.9215 25.2014 27.2394 26.8509 24.4999 26.8509C21.7604 26.8509 19.0784 25.2014 16.9477 22.2064C14.9204 19.3566 13.7101 15.6254 13.7101 12.2253C13.7101 6.27583 18.5504 1.43555 24.4999 1.43555V1.43555ZM25.8499 30.6868H23.15L23.8435 28.2598C24.0617 28.277 24.2805 28.2865 24.5 28.2865C24.7195 28.2865 24.9383 28.277 25.1564 28.2598L25.8499 30.6868ZM16.9842 33.0769C17.1108 33.0211 17.2359 32.9614 17.3593 32.8978C17.4826 32.8342 17.6032 32.7662 17.722 32.6952L18.8865 33.9335L17.3186 34.7427L16.9842 33.0769ZM19.3988 35.2845L20.3906 34.7727C20.5907 34.6693 20.7308 34.4781 20.7688 34.2562C20.8069 34.0341 20.7386 33.8072 20.5842 33.6431L18.8771 31.8281C19.3605 31.3793 19.7935 30.8535 20.1718 30.253C20.3831 29.9177 20.2826 29.4744 19.9471 29.2631C19.6118 29.0518 19.1685 29.1524 18.9573 29.4879C18.3565 30.4414 17.5973 31.1596 16.7009 31.6223C14.8044 32.6012 12.35 32.4135 9.79005 31.0937C7.33919 29.8301 5.14214 27.654 3.91302 25.2725C1.77569 21.1314 3.40589 16.0238 7.54687 13.8864C9.02692 13.1225 10.6563 12.8174 12.2927 12.9901C12.4529 16.4991 13.7027 20.1214 15.7779 23.0386C17.6602 25.6846 19.9644 27.401 22.4178 28.024L21.5082 31.2074C21.4464 31.424 21.4898 31.6571 21.6254 31.8369C21.761 32.0167 21.9732 32.1225 22.1984 32.1225H23.7821V43.7773L19.3988 35.2845ZM25.2271 39.1591C25.2238 39.1654 25.2209 39.1718 25.2177 39.1781V32.1224H26.8014C27.0267 32.1224 27.2387 32.0166 27.3744 31.8368C27.5101 31.6571 27.5534 31.4239 27.4916 31.2074L26.582 28.0239C27.6149 27.7616 28.621 27.3044 29.5806 26.6667C29.7537 26.8652 29.9348 27.0522 30.1234 27.2273L28.4156 29.0431C28.2613 29.2073 28.1929 29.4342 28.231 29.6562C28.269 29.8781 28.4091 30.0693 28.6092 30.1727L29.601 30.6846L25.2271 39.1591ZM31.6812 30.1428L30.1133 29.3336L31.278 28.0953C31.3969 28.1664 31.5174 28.2345 31.6405 28.298C31.7639 28.3617 31.889 28.4213 32.0157 28.4771L31.6812 30.1428Z" fill="black"/>
</g>
<defs>
<clipPath id="clip0_206_54">
<rect width="49" height="49" fill="white"/>
</clipPath>
</defs>
</svg>
